<svg id="card-celender-icon" xmlns="http://www.w3.org/2000/svg" width="9.837" height="9.017" viewBox="0 0 9.837 9.017">
  <g id="Group_558" data-name="Group 558" transform="translate(3.162 4.274)">
    <g id="Group_553" data-name="Group 553" transform="translate(0 0)">
      <path id="Path_95" data-name="Path 95" d="M1273.46,1672.054a.35.35,0,0,1-.344-.421.427.427,0,0,1,.02-.065.365.365,0,0,1,.033-.06.32.32,0,0,1,.043-.054.384.384,0,0,1,.052-.043.44.44,0,0,1,.061-.033.453.453,0,0,1,.066-.02.351.351,0,0,1,.317.1.27.27,0,0,1,.044.054.3.3,0,0,1,.033.06.324.324,0,0,1,.02.065.359.359,0,0,1,.007.069.352.352,0,0,1-.1.248.377.377,0,0,1-.052.044.438.438,0,0,1-.061.032.321.321,0,0,1-.066.02A.347.347,0,0,1,1273.46,1672.054Z" transform="translate(-1273.109 -1671.351)" fill="#1b7f9d"/>
    </g>
    <g id="Group_554" data-name="Group 554" transform="translate(0 0)">
      <path id="Path_96" data-name="Path 96" d="M1273.46,1672.054a.35.35,0,0,1-.344-.421.427.427,0,0,1,.02-.065.365.365,0,0,1,.033-.06.32.32,0,0,1,.043-.054.384.384,0,0,1,.052-.043.44.44,0,0,1,.061-.033.453.453,0,0,1,.066-.02.351.351,0,0,1,.317.1.27.27,0,0,1,.044.054.3.3,0,0,1,.033.06.324.324,0,0,1,.02.065.359.359,0,0,1,.007.069.352.352,0,0,1-.1.248.377.377,0,0,1-.052.044.438.438,0,0,1-.061.032.321.321,0,0,1-.066.02A.347.347,0,0,1,1273.46,1672.054Z" transform="translate(-1273.109 -1671.351)" fill="#1b7f9d"/>
    </g>
    <g id="Group_555" data-name="Group 555" transform="translate(1.405 0)">
      <path id="Path_97" data-name="Path 97" d="M1285.46,1672.054a.352.352,0,0,1-.351-.351.333.333,0,0,1,.007-.069.4.4,0,0,1,.02-.065.355.355,0,0,1,.033-.06.319.319,0,0,1,.043-.054.353.353,0,0,1,.318-.1.348.348,0,0,1,.126.053.385.385,0,0,1,.053.043.278.278,0,0,1,.043.054.3.3,0,0,1,.033.06.316.316,0,0,1,.02.065.35.35,0,0,1-.1.318A.353.353,0,0,1,1285.46,1672.054Z" transform="translate(-1285.109 -1671.351)" fill="#1b7f9d"/>
    </g>
    <g id="Group_556" data-name="Group 556" transform="translate(2.928 0)">
      <path id="Path_98" data-name="Path 98" d="M1298.46,1672.054a.352.352,0,0,1-.351-.351.35.35,0,0,1,.007-.069.426.426,0,0,1,.02-.065.375.375,0,0,1,.033-.06.319.319,0,0,1,.043-.054.353.353,0,0,1,.317-.1.457.457,0,0,1,.066.02.444.444,0,0,1,.061.033.369.369,0,0,1,.052.043.261.261,0,0,1,.043.054.3.3,0,0,1,.033.06.323.323,0,0,1,.02.065.332.332,0,0,1,.007.069.352.352,0,0,1-.351.351Z" transform="translate(-1298.109 -1671.351)" fill="#1b7f9d"/>
    </g>
    <g id="Group_557" data-name="Group 557" transform="translate(4.333 0.004)">
      <path id="Path_99" data-name="Path 99" d="M1310.46,1672.087a.35.35,0,0,1-.344-.421.431.431,0,0,1,.02-.065.4.4,0,0,1,.033-.06.335.335,0,0,1,.043-.054.362.362,0,0,1,.5,0,.351.351,0,0,1,0,.5.338.338,0,0,1-.054.044.368.368,0,0,1-.06.032.32.32,0,0,1-.066.02A.349.349,0,0,1,1310.46,1672.087Z" transform="translate(-1310.109 -1671.389)" fill="#1b7f9d"/>
    </g>
  </g>
  <g id="Group_564" data-name="Group 564" transform="translate(1.639 5.562)">
    <g id="Group_559" data-name="Group 559" transform="translate(0 0)">
      <path id="Path_100" data-name="Path 100" d="M1260.46,1683.054a.353.353,0,0,1-.248-.1.367.367,0,0,1-.043-.053.455.455,0,0,1-.033-.061.424.424,0,0,1-.02-.066.334.334,0,0,1,0-.138.424.424,0,0,1,.02-.066.39.39,0,0,1,.033-.06.33.33,0,0,1,.043-.054.4.4,0,0,1,.052-.043.352.352,0,0,1,.061-.033.342.342,0,0,1,.066-.02.353.353,0,0,1,.317.1.281.281,0,0,1,.043.054.3.3,0,0,1,.033.06.33.33,0,0,1,.02.066.34.34,0,0,1,0,.138.33.33,0,0,1-.02.066.341.341,0,0,1-.033.061.375.375,0,0,1-.043.053A.354.354,0,0,1,1260.46,1683.054Z" transform="translate(-1260.109 -1682.351)" fill="#1b7f9d"/>
    </g>
    <g id="Group_560" data-name="Group 560" transform="translate(1.522 0)">
      <path id="Path_101" data-name="Path 101" d="M1273.46,1683.054a.36.36,0,0,1-.135-.027.286.286,0,0,1-.06-.033.329.329,0,0,1-.054-.043.367.367,0,0,1-.043-.053.346.346,0,0,1-.053-.127.34.34,0,0,1,0-.138.438.438,0,0,1,.02-.066.379.379,0,0,1,.033-.06.331.331,0,0,1,.043-.054.353.353,0,0,1,.317-.1.337.337,0,0,1,.066.02.351.351,0,0,1,.061.033.36.36,0,0,1,.1.1.364.364,0,0,1,.032.06.351.351,0,0,1,.02.2.331.331,0,0,1-.02.066.348.348,0,0,1-.033.061.378.378,0,0,1-.044.053A.353.353,0,0,1,1273.46,1683.054Z" transform="translate(-1273.109 -1682.351)" fill="#1b7f9d"/>
    </g>
    <g id="Group_561" data-name="Group 561" transform="translate(2.928 0)">
      <path id="Path_102" data-name="Path 102" d="M1285.46,1683.054a.354.354,0,0,1-.248-.1.367.367,0,0,1-.043-.053.427.427,0,0,1-.033-.061.411.411,0,0,1-.02-.066.329.329,0,0,1,0-.138.448.448,0,0,1,.02-.066.369.369,0,0,1,.033-.06.33.33,0,0,1,.043-.054.4.4,0,0,1,.053-.043.343.343,0,0,1,.061-.033.333.333,0,0,1,.066-.02.352.352,0,0,1,.317.1.344.344,0,0,1,.045.054.373.373,0,0,1,.032.06.323.323,0,0,1,.02.066.35.35,0,0,1-.1.317.393.393,0,0,1-.053.043.344.344,0,0,1-.061.033.327.327,0,0,1-.066.02A.341.341,0,0,1,1285.46,1683.054Z" transform="translate(-1285.109 -1682.351)" fill="#1b7f9d"/>
    </g>
    <g id="Group_562" data-name="Group 562" transform="translate(4.45 0)">
      <path id="Path_103" data-name="Path 103" d="M1298.46,1683.054a.353.353,0,0,1-.248-.1.367.367,0,0,1-.043-.053.455.455,0,0,1-.033-.061.438.438,0,0,1-.02-.066.34.34,0,0,1,0-.138.438.438,0,0,1,.02-.066.39.39,0,0,1,.033-.06.33.33,0,0,1,.043-.054.4.4,0,0,1,.053-.043.35.35,0,0,1,.126-.053.353.353,0,0,1,.317.1.268.268,0,0,1,.043.054.308.308,0,0,1,.033.06.355.355,0,0,1,0,.269.353.353,0,0,1-.324.217Z" transform="translate(-1298.109 -1682.351)" fill="#1b7f9d"/>
    </g>
    <g id="Group_563" data-name="Group 563" transform="translate(5.855 0)">
      <path id="Path_104" data-name="Path 104" d="M1310.46,1683.053a.358.358,0,0,1-.069-.007.367.367,0,0,1-.066-.02.285.285,0,0,1-.06-.033.366.366,0,0,1-.054-.043.352.352,0,0,1-.043-.053.458.458,0,0,1-.033-.061.425.425,0,0,1-.02-.066.346.346,0,0,1-.007-.069.349.349,0,0,1,.007-.069.431.431,0,0,1,.02-.065.394.394,0,0,1,.033-.06.325.325,0,0,1,.043-.054.338.338,0,0,1,.054-.043.31.31,0,0,1,.06-.033.354.354,0,0,1,.2-.02.327.327,0,0,1,.066.02.38.38,0,0,1,.061.033.323.323,0,0,1,.053.043.319.319,0,0,1,.044.054.36.36,0,0,1,.032.06.326.326,0,0,1,.02.065.34.34,0,0,1,.007.069.337.337,0,0,1-.007.069.323.323,0,0,1-.02.066.335.335,0,0,1-.033.061.286.286,0,0,1-.043.053A.354.354,0,0,1,1310.46,1683.053Z" transform="translate(-1310.109 -1682.35)" fill="#1b7f9d"/>
    </g>
  </g>
  <g id="Group_569" data-name="Group 569" transform="translate(1.639 6.851)">
    <g id="Group_565" data-name="Group 565" transform="translate(0 0.004)">
      <path id="Path_105" data-name="Path 105" d="M1260.46,1694.087a.358.358,0,0,1-.069-.007.337.337,0,0,1-.066-.02.283.283,0,0,1-.06-.033.28.28,0,0,1-.054-.043.353.353,0,0,1-.1-.248.341.341,0,0,1,.007-.069.42.42,0,0,1,.02-.066.384.384,0,0,1,.033-.06.33.33,0,0,1,.043-.054.363.363,0,0,1,.5,0,.281.281,0,0,1,.043.054.3.3,0,0,1,.033.06.328.328,0,0,1,.02.066.349.349,0,0,1,.007.069.354.354,0,0,1-.1.248.395.395,0,0,1-.114.076.315.315,0,0,1-.066.02A.349.349,0,0,1,1260.46,1694.087Z" transform="translate(-1260.109 -1693.389)" fill="#1b7f9d"/>
    </g>
    <g id="Group_566" data-name="Group 566" transform="translate(1.522 0.004)">
      <path id="Path_106" data-name="Path 106" d="M1273.46,1694.087a.351.351,0,0,1-.248-.6.362.362,0,0,1,.5,0,.351.351,0,0,1,0,.5.313.313,0,0,1-.052.043.335.335,0,0,1-.061.033.314.314,0,0,1-.066.02A.347.347,0,0,1,1273.46,1694.087Z" transform="translate(-1273.109 -1693.389)" fill="#1b7f9d"/>
    </g>
    <g id="Group_567" data-name="Group 567" transform="translate(2.928 0)">
      <path id="Path_107" data-name="Path 107" d="M1285.46,1694.054a.351.351,0,1,1,.069-.7.407.407,0,0,1,.066.02.49.49,0,0,1,.061.033.384.384,0,0,1,.053.043.351.351,0,0,1,0,.5.313.313,0,0,1-.053.043.335.335,0,0,1-.061.033.312.312,0,0,1-.066.02A.349.349,0,0,1,1285.46,1694.054Z" transform="translate(-1285.109 -1693.351)" fill="#1b7f9d"/>
    </g>
    <g id="Group_568" data-name="Group 568" transform="translate(4.45 0.004)">
      <path id="Path_108" data-name="Path 108" d="M1298.46,1694.087a.352.352,0,0,1-.351-.351.349.349,0,0,1,.007-.069.433.433,0,0,1,.02-.066.384.384,0,0,1,.033-.06.33.33,0,0,1,.043-.054.362.362,0,0,1,.5,0,.268.268,0,0,1,.043.054.3.3,0,0,1,.033.06.328.328,0,0,1,.02.066.332.332,0,0,1,.007.069.353.353,0,0,1-.1.248.313.313,0,0,1-.052.043.334.334,0,0,1-.061.033.318.318,0,0,1-.066.02A.349.349,0,0,1,1298.46,1694.087Z" transform="translate(-1298.109 -1693.389)" fill="#1b7f9d"/>
    </g>
  </g>
  <g id="Group_570" data-name="Group 570" transform="translate(0 0.937)">
    <path id="Path_109" data-name="Path 109" d="M1255.6,1650.931h-9.135a.351.351,0,0,1-.351-.351V1643.2a.351.351,0,0,1,.351-.351h9.135a.351.351,0,0,1,.351.351v7.378A.351.351,0,0,1,1255.6,1650.931Zm-8.783-.7h8.432v-6.675h-8.432Z" transform="translate(-1246.111 -1642.851)" fill="#1b7f9d"/>
  </g>
  <g id="Group_571" data-name="Group 571" transform="translate(0 2.928)">
    <path id="Path_110" data-name="Path 110" d="M1255.6,1660.554h-9.135a.351.351,0,0,1,0-.7h9.135a.351.351,0,0,1,0,.7Z" transform="translate(-1246.111 -1659.851)" fill="#1b7f9d"/>
  </g>
  <g id="Group_572" data-name="Group 572" transform="translate(7.495 0)">
    <path id="Path_111" data-name="Path 111" d="M1310.462,1637.311a.351.351,0,0,1-.351-.351V1635.2a.351.351,0,0,1,.7,0v1.757A.351.351,0,0,1,1310.462,1637.311Z" transform="translate(-1310.111 -1634.852)" fill="#1b7f9d"/>
  </g>
  <g id="Group_573" data-name="Group 573" transform="translate(1.64 0)">
    <path id="Path_112" data-name="Path 112" d="M1260.462,1637.311a.351.351,0,0,1-.351-.351V1635.2a.351.351,0,0,1,.7,0v1.757A.351.351,0,0,1,1260.462,1637.311Z" transform="translate(-1260.111 -1634.852)" fill="#1b7f9d"/>
  </g>
</svg>
