<svg id="card-doc-icon" xmlns="http://www.w3.org/2000/svg" width="6.903" height="8.995" viewBox="0 0 6.903 8.995">
  <g id="Group_582" data-name="Group 582" transform="translate(0 0)">
    <path id="Path_119" data-name="Path 119" d="M1046.978,1639.345H1040.7a.314.314,0,0,1-.314-.314v-8.367a.314.314,0,0,1,.314-.314h3.451a.314.314,0,1,1,0,.628h-3.137v7.739h5.648v-5.229a.314.314,0,0,1,.627,0v5.543A.314.314,0,0,1,1046.978,1639.345Z" transform="translate(-1040.389 -1630.351)" fill="#1b7f9d"/>
  </g>
  <g id="Group_583" data-name="Group 583" transform="translate(3.451 0)">
    <path id="Path_120" data-name="Path 120" d="M1076.527,1633.8H1073.7a.314.314,0,0,1-.314-.314v-2.824a.314.314,0,0,1,.536-.222l2.824,2.824a.314.314,0,0,1-.222.536Zm-2.51-.627h1.753l-1.753-1.753Z" transform="translate(-1073.389 -1630.349)" fill="#1b7f9d"/>
  </g>
  <g id="Group_584" data-name="Group 584" transform="translate(1.255 1.36)">
    <path id="Path_121" data-name="Path 121" d="M1053.749,1643.979H1052.7a.314.314,0,1,1,0-.627h1.046a.314.314,0,1,1,0,.627Z" transform="translate(-1052.389 -1643.351)" fill="#1b7f9d"/>
  </g>
  <g id="Group_585" data-name="Group 585" transform="translate(1.255 2.824)">
    <path id="Path_122" data-name="Path 122" d="M1053.749,1657.979H1052.7a.314.314,0,1,1,0-.628h1.046a.314.314,0,1,1,0,.628Z" transform="translate(-1052.389 -1657.351)" fill="#1b7f9d"/>
  </g>
  <g id="Group_586" data-name="Group 586" transform="translate(1.255 4.184)">
    <path id="Path_123" data-name="Path 123" d="M1056.573,1670.979h-3.87a.314.314,0,1,1,0-.627h3.87a.314.314,0,0,1,0,.627Z" transform="translate(-1052.389 -1670.351)" fill="#1b7f9d"/>
  </g>
  <g id="Group_587" data-name="Group 587" transform="translate(1.255 5.648)">
    <path id="Path_124" data-name="Path 124" d="M1055.84,1684.979H1052.7a.314.314,0,1,1,0-.628h3.138a.314.314,0,0,1,0,.628Z" transform="translate(-1052.389 -1684.351)" fill="#1b7f9d"/>
  </g>
  <g id="Group_588" data-name="Group 588" transform="translate(1.255 7.007)">
    <path id="Path_125" data-name="Path 125" d="M1056.259,1697.979H1052.7a.314.314,0,1,1,0-.628h3.556a.314.314,0,1,1,0,.628Z" transform="translate(-1052.389 -1697.351)" fill="#1b7f9d"/>
  </g>
</svg>
