<svg id="card-time-iocn" xmlns="http://www.w3.org/2000/svg" width="9.407" height="9.407" viewBox="0 0 9.407 9.407">
  <g id="Group_575" data-name="Group 575" transform="translate(0 0)">
    <path id="Path_113" data-name="Path 113" d="M607.043,2070.421a4.7,4.7,0,1,1,4.7-4.7A4.709,4.709,0,0,1,607.043,2070.421Zm0-8.719a4.015,4.015,0,1,0,4.015,4.015A4.02,4.02,0,0,0,607.043,2061.7Z" transform="translate(-602.34 -2061.014)" fill="#1b7f9d"/>
  </g>
  <g id="Group_576" data-name="Group 576" transform="translate(2.638 2.179)">
    <path id="Path_114" data-name="Path 114" d="M627.29,2083.685a.343.343,0,0,1-.234-.092l-1.606-1.491a.344.344,0,0,1,.468-.5l1.329,1.234,2.064-2.684a.344.344,0,0,1,.546.42l-2.294,2.982a.344.344,0,0,1-.244.133Z" transform="translate(-625.34 -2080.013)" fill="#1b7f9d"/>
  </g>
  <g id="Group_577" data-name="Group 577" transform="translate(4.359 0)">
    <path id="Path_115" data-name="Path 115" d="M640.684,2062.39a.344.344,0,0,1-.344-.344v-.688a.344.344,0,0,1,.688,0v.688A.344.344,0,0,1,640.684,2062.39Z" transform="translate(-640.34 -2061.014)" fill="#1b7f9d"/>
  </g>
  <g id="Group_578" data-name="Group 578" transform="translate(8.03 4.359)">
    <path id="Path_116" data-name="Path 116" d="M673.372,2099.7h-.688a.344.344,0,1,1,0-.688h.688a.344.344,0,1,1,0,.688Z" transform="translate(-672.34 -2099.014)" fill="#1b7f9d"/>
  </g>
  <g id="Group_579" data-name="Group 579" transform="translate(4.359 8.03)">
    <path id="Path_117" data-name="Path 117" d="M640.684,2132.39a.344.344,0,0,1-.344-.344v-.688a.344.344,0,1,1,.688,0v.688A.344.344,0,0,1,640.684,2132.39Z" transform="translate(-640.34 -2131.014)" fill="#1b7f9d"/>
  </g>
  <g id="Group_580" data-name="Group 580" transform="translate(0 4.359)">
    <path id="Path_118" data-name="Path 118" d="M603.372,2099.7h-.688a.344.344,0,1,1,0-.688h.688a.344.344,0,1,1,0,.688Z" transform="translate(-602.34 -2099.014)" fill="#1b7f9d"/>
  </g>
</svg>
