<svg xmlns="http://www.w3.org/2000/svg" width="17" height="16.228" viewBox="0 0 17 16.228">
  <g id="card-white-star-icon" transform="translate(-1022.916 -571.808)">
    <g id="Group_590" data-name="Group 590" transform="translate(1022.916 571.808)">
      <path id="Path_126" data-name="Path 126" d="M1026.538,588.036a.607.607,0,0,1-.607-.624l.137-4.96-3.025-3.932a.607.607,0,0,1,.309-.953l4.759-1.4,2.8-4.093a.607.607,0,0,1,1,0l2.8,4.093,4.759,1.4a.607.607,0,0,1,.309.953l-3.025,3.932.136,4.96a.607.607,0,0,1-.81.589l-4.675-1.662L1026.741,588A.6.6,0,0,1,1026.538,588.036Zm-1.993-9.554,2.617,3.4a.607.607,0,0,1,.126.387l-.118,4.29,4.043-1.438a.606.606,0,0,1,.407,0l4.043,1.438-.118-4.29a.607.607,0,0,1,.126-.387l2.617-3.4-4.116-1.213a.609.609,0,0,1-.329-.239l-2.426-3.54-2.426,3.54a.607.607,0,0,1-.329.239Z" transform="translate(-1022.916 -571.808)" fill="#f2f3f7"/>
    </g>
  </g>
</svg>
