<svg id="card-location-icon" xmlns="http://www.w3.org/2000/svg" width="8.071" height="11.079" viewBox="0 0 8.071 11.079">
  <g id="Group_547" data-name="Group 547" transform="translate(0 0)">
    <path id="Path_91" data-name="Path 91" d="M176.036,579.052a.378.378,0,0,1-.313-.166c-.092-.136-2.271-3.351-3.079-4.689a4.2,4.2,0,0,1-.644-2.188,4.04,4.04,0,0,1,4.035-4.036h0a4.04,4.04,0,0,1,4.035,4.036,4.2,4.2,0,0,1-.644,2.188c-.808,1.338-2.986,4.553-3.078,4.689A.378.378,0,0,1,176.036,579.052Zm0-10.322a3.283,3.283,0,0,0-3.279,3.279,3.454,3.454,0,0,0,.535,1.8c.617,1.022,2.1,3.23,2.744,4.192.648-.962,2.126-3.17,2.743-4.192a3.454,3.454,0,0,0,.535-1.8A3.283,3.283,0,0,0,176.036,568.73Z" transform="translate(-172 -567.973)" fill="#1b7f9d"/>
  </g>
  <g id="Group_548" data-name="Group 548" transform="translate(2.018 2.008)">
    <path id="Path_92" data-name="Path 92" d="M190.018,587.935a2.018,2.018,0,1,1,2.018-2.018A2.02,2.02,0,0,1,190.018,587.935Zm0-3.279a1.261,1.261,0,1,0,1.261,1.261A1.262,1.262,0,0,0,190.018,584.656Z" transform="translate(-188 -583.899)" fill="#1b7f9d"/>
  </g>
</svg>
