<svg id="Dashboard_active" xmlns="http://www.w3.org/2000/svg" width="23" height="18.067" viewBox="0 0 23 18.067">
  <g id="Group_642" data-name="Group 642">
    <g id="Group_641" data-name="Group 641">
      <g id="Group_640" data-name="Group 640">
        <g id="Group_639" data-name="Group 639">
          <path id="Path_137" data-name="Path 137" d="M172.56,563.494H152.5a1.455,1.455,0,0,1-1.472-1.433V549.819a1.455,1.455,0,0,1,1.472-1.433H172.56a1.455,1.455,0,0,1,1.472,1.433v12.242A1.455,1.455,0,0,1,172.56,563.494ZM152.5,548.982a.85.85,0,0,0-.86.837v12.242a.85.85,0,0,0,.86.838H172.56a.85.85,0,0,0,.86-.838V549.819a.85.85,0,0,0-.86-.837Z" transform="translate(-151.032 -548.386)" fill="#424446"/>
        </g>
      </g>
    </g>
  </g>
  <g id="Group_646" data-name="Group 646" transform="translate(9.426 14.398)">
    <g id="Group_645" data-name="Group 645">
      <g id="Group_644" data-name="Group 644">
        <g id="Group_643" data-name="Group 643">
          <path id="Path_138" data-name="Path 138" d="M170.558,576.2h-3.437a.355.355,0,0,1-.355-.355v-2.959a.355.355,0,0,1,.355-.355h3.437a.355.355,0,0,1,.355.355v2.959A.355.355,0,0,1,170.558,576.2Zm-3.082-.711H170.2v-2.249h-2.726Z" transform="translate(-166.766 -572.532)" fill="#424446"/>
        </g>
      </g>
    </g>
  </g>
  <g id="Group_650" data-name="Group 650" transform="translate(0 12.143)">
    <g id="Group_649" data-name="Group 649">
      <g id="Group_648" data-name="Group 648">
        <g id="Group_647" data-name="Group 647">
          <path id="Path_139" data-name="Path 139" d="M173.726,568.874H151.338a.359.359,0,0,1,0-.711h22.388a.359.359,0,0,1,0,.711Z" transform="translate(-151.032 -568.163)" fill="#424446"/>
        </g>
      </g>
    </g>
  </g>
  <g id="Group_654" data-name="Group 654" transform="translate(6.801 17.357)">
    <g id="Group_653" data-name="Group 653">
      <g id="Group_652" data-name="Group 652">
        <g id="Group_651" data-name="Group 651">
          <path id="Path_140" data-name="Path 140" d="M172.151,577.366h-8.688a.355.355,0,0,1,0-.711h8.688a.355.355,0,1,1,0,.711Z" transform="translate(-163.108 -576.655)" fill="#424446"/>
        </g>
      </g>
    </g>
  </g>
  <g id="Group_683" data-name="Group 683" transform="translate(2.502 2.518)">
    <g id="Group_658" data-name="Group 658" transform="translate(11.079 1.594)">
      <g id="Group_657" data-name="Group 657">
        <g id="Group_656" data-name="Group 656">
          <g id="Group_655" data-name="Group 655">
            <path id="Path_141" data-name="Path 141" d="M172.682,560.471a.355.355,0,0,1-.26-.6l4.173-4.455a.355.355,0,0,1,.519.486l-4.173,4.455A.354.354,0,0,1,172.682,560.471Z" transform="translate(-172.326 -555.306)" fill="#424446"/>
          </g>
        </g>
      </g>
    </g>
    <g id="Group_662" data-name="Group 662" transform="translate(5.153 3.907)">
      <g id="Group_661" data-name="Group 661">
        <g id="Group_660" data-name="Group 660">
          <g id="Group_659" data-name="Group 659">
            <path id="Path_142" data-name="Path 142" d="M168.829,561.62a.347.347,0,0,1-.169-.043l-4.4-2.379a.356.356,0,0,1,.338-.626l4.4,2.379a.355.355,0,0,1-.169.668Z" transform="translate(-164.07 -558.529)" fill="#424446"/>
          </g>
        </g>
      </g>
    </g>
    <g id="Group_666" data-name="Group 666" transform="translate(1.518 4.223)">
      <g id="Group_665" data-name="Group 665">
        <g id="Group_664" data-name="Group 664">
          <g id="Group_663" data-name="Group 663">
            <path id="Path_143" data-name="Path 143" d="M159.36,562.495a.356.356,0,0,1-.278-.577l2.239-2.814a.355.355,0,0,1,.556.443l-2.239,2.813A.358.358,0,0,1,159.36,562.495Z" transform="translate(-159.005 -558.97)" fill="#424446"/>
          </g>
        </g>
      </g>
    </g>
    <g id="Group_670" data-name="Group 670" transform="translate(0 6.943)">
      <g id="Group_669" data-name="Group 669">
        <g id="Group_668" data-name="Group 668">
          <g id="Group_667" data-name="Group 667">
            <path id="Path_144" data-name="Path 144" d="M158.133,565.244h-.057a1.243,1.243,0,0,1-.782-2.158,1.243,1.243,0,0,1,2.079.973h0A1.244,1.244,0,0,1,158.133,565.244Zm0-1.774a.532.532,0,1,0,.532.556h0a.531.531,0,0,0-.507-.555Z" transform="translate(-156.89 -562.76)" fill="#424446"/>
          </g>
        </g>
      </g>
    </g>
    <g id="Group_674" data-name="Group 674" transform="translate(3.471 2.59)">
      <g id="Group_673" data-name="Group 673">
        <g id="Group_672" data-name="Group 672">
          <g id="Group_671" data-name="Group 671">
            <path id="Path_145" data-name="Path 145" d="M162.969,559.179h-.057a1.243,1.243,0,1,1,1.3-1.185h0A1.244,1.244,0,0,1,162.969,559.179Zm0-1.774a.536.536,0,1,0,.024,0Zm.886.571h0Z" transform="translate(-161.726 -556.694)" fill="#424446"/>
          </g>
        </g>
      </g>
    </g>
    <g id="Group_678" data-name="Group 678" transform="translate(9.536 5.867)">
      <g id="Group_677" data-name="Group 677">
        <g id="Group_676" data-name="Group 676">
          <g id="Group_675" data-name="Group 675">
            <path id="Path_146" data-name="Path 146" d="M171.42,563.745h-.057a1.242,1.242,0,1,1,1.3-1.186h0A1.244,1.244,0,0,1,171.42,563.745Zm0-1.773a.531.531,0,1,0,.532.556h0a.532.532,0,0,0-.507-.555Zm.886.571h0Z" transform="translate(-170.177 -561.26)" fill="#424446"/>
          </g>
        </g>
      </g>
    </g>
    <g id="Group_682" data-name="Group 682" transform="translate(15.027)">
      <g id="Group_681" data-name="Group 681">
        <g id="Group_680" data-name="Group 680">
          <g id="Group_679" data-name="Group 679">
            <path id="Path_147" data-name="Path 147" d="M179.07,555.571h-.057a1.243,1.243,0,1,1,1.3-1.185h0A1.243,1.243,0,0,1,179.07,555.571Zm0-1.774a.532.532,0,1,0,.532.555h0a.531.531,0,0,0-.507-.555Z" transform="translate(-177.827 -553.085)" fill="#424446"/>
          </g>
        </g>
      </g>
    </g>
  </g>
</svg>
