<svg xmlns="http://www.w3.org/2000/svg" width="536" height="471.565" viewBox="0 0 536 471.565">
  <g id="Group_157" data-name="Group 157" transform="translate(-374 -371)">
    <g id="Artboard_14" data-name="Artboard 14" transform="translate(374 371)">
      <path id="Path_24" data-name="Path 24" d="M287.161,45.73A161.576,161.576,0,0,0,130.946,165.08h0a161.62,161.62,0,0,0-5.405,41.457v40.711a159.676,159.676,0,0,0,45.664,112l1.719,1.764a161.961,161.961,0,0,0,57.854,37.024h0A161.915,161.915,0,0,0,448.827,247.2V206.492C448.872,117.743,376.476,45.73,287.161,45.73Zm113.2,195.433a113.288,113.288,0,0,1-193.194,79.589,111.66,111.66,0,0,1-33.089-79.589v-9.047c0-41.774-40.711-65.589-42.972-66.992h53.625a113.288,113.288,0,0,1,215.766,47.5Z" transform="translate(87.173 -45.73)" fill="#e6d727"/>
      <path id="Path_25" data-name="Path 25" d="M349.44,337.133H295.815A113.288,113.288,0,0,1,80.139,289.524V261.049A113.266,113.266,0,0,1,244.248,160.517V145.635a161.634,161.634,0,0,1,5.407-41.464A160.739,160.739,0,0,0,193.224,94C103.887,94,31.49,166.013,31.49,254.829V295.54c0,88.84,72.374,160.852,161.734,160.852a161.666,161.666,0,0,0,156.238-119.3h0Z" transform="translate(-31.49 15.172)" fill="#1f7f9d"/>
    </g>
  </g>
</svg>
