<svg xmlns="http://www.w3.org/2000/svg" width="23" height="23" viewBox="0 0 23 23">
  <g id="Incentives_active" transform="translate(-658.813 -617.955)">
    <g id="Group_727" data-name="Group 727" transform="translate(667.421 623.103)">
      <g id="Group_718" data-name="Group 718" transform="translate(0 1.681)">
        <g id="Group_717" data-name="Group 717">
          <g id="Group_716" data-name="Group 716">
            <g id="Group_715" data-name="Group 715">
              <path id="Path_155" data-name="Path 155" d="M673.447,636.217a3.374,3.374,0,0,1-2.76-1.4.377.377,0,1,1,.6-.459,2.813,2.813,0,0,0,3.537.783l.034-.015a1.378,1.378,0,0,0,.762-1.433,1.691,1.691,0,0,0-1.166-1.423s-1.072-.32-2.128-.633a2.056,2.056,0,0,1-1.66-2.1c.005-.51.233-2.172,2.913-2.143a2.867,2.867,0,0,1,2.8,1.931.377.377,0,0,1-.724.209,2.1,2.1,0,0,0-2.086-1.386c-.975-.011-2.138.224-2.151,1.4a1.305,1.305,0,0,0,1.12,1.367c1.057.313,2.128.633,2.128.633a2.444,2.444,0,0,1,1.7,2.078,2.135,2.135,0,0,1-1.211,2.193A3.853,3.853,0,0,1,673.447,636.217Z" transform="translate(-670.609 -627.396)" fill="#424446"/>
            </g>
          </g>
        </g>
      </g>
      <g id="Group_722" data-name="Group 722" transform="translate(2.587)">
        <g id="Group_721" data-name="Group 721">
          <g id="Group_720" data-name="Group 720">
            <g id="Group_719" data-name="Group 719">
              <path id="Path_156" data-name="Path 156" d="M674.384,627.623a.377.377,0,0,1-.377-.377v-1.681a.377.377,0,0,1,.754,0v1.681A.377.377,0,0,1,674.384,627.623Z" transform="translate(-674.007 -625.188)" fill="#424446"/>
            </g>
          </g>
        </g>
      </g>
      <g id="Group_726" data-name="Group 726" transform="translate(2.587 9.854)">
        <g id="Group_725" data-name="Group 725">
          <g id="Group_724" data-name="Group 724">
            <g id="Group_723" data-name="Group 723">
              <path id="Path_157" data-name="Path 157" d="M674.384,640.567a.377.377,0,0,1-.377-.377v-1.681a.377.377,0,0,1,.754,0v1.681A.377.377,0,0,1,674.384,640.567Z" transform="translate(-674.007 -638.132)" fill="#424446"/>
            </g>
          </g>
        </g>
      </g>
    </g>
    <g id="Group_731" data-name="Group 731" transform="translate(661.474 620.616)">
      <g id="Group_730" data-name="Group 730">
        <g id="Group_729" data-name="Group 729">
          <g id="Group_728" data-name="Group 728">
            <path id="Path_158" data-name="Path 158" d="M671.147,639.127a8.838,8.838,0,1,1,8.838-8.838A8.848,8.848,0,0,1,671.147,639.127Zm0-16.953a8.115,8.115,0,1,0,8.115,8.115A8.124,8.124,0,0,0,671.147,622.174Z" transform="translate(-662.309 -621.451)" fill="#424446"/>
          </g>
        </g>
      </g>
    </g>
    <g id="Group_735" data-name="Group 735" transform="translate(658.813 617.955)">
      <g id="Group_734" data-name="Group 734">
        <g id="Group_733" data-name="Group 733">
          <g id="Group_732" data-name="Group 732">
            <path id="Path_159" data-name="Path 159" d="M670.313,640.955a11.5,11.5,0,1,1,11.5-11.5A11.513,11.513,0,0,1,670.313,640.955Zm0-22.27a10.77,10.77,0,1,0,10.77,10.77A10.782,10.782,0,0,0,670.313,618.685Z" transform="translate(-658.813 -617.955)" fill="#424446"/>
          </g>
        </g>
      </g>
    </g>
  </g>
</svg>
