<svg xmlns="http://www.w3.org/2000/svg" width="23" height="15.645" viewBox="0 0 23 15.645">
  <g id="LearnAndGrow-icon" transform="translate(-1032.556 -553.241)">
    <g id="Group_767" data-name="Group 767" transform="translate(1037.517 560.818)">
      <g id="Group_766" data-name="Group 766" transform="translate(0 0)">
        <g id="Group_765" data-name="Group 765">
          <g id="Group_764" data-name="Group 764">
            <path id="Path_166" data-name="Path 166" d="M1053.06,565.967v3.5a9.218,9.218,0,0,1-11.984,0v-3.514a3.693,3.693,0,0,1-.547-.368v4.007a.273.273,0,0,0,.093.2,9.765,9.765,0,0,0,12.893,0,.273.273,0,0,0,.093-.2v-3.818A4,4,0,0,1,1053.06,565.967Z" transform="translate(-1040.529 -565.586)" fill="#fff"/>
            <path id="Path_167" data-name="Path 167" d="M1063.714,572.841h0Z" transform="translate(-1050.909 -568.834)" fill="#fff"/>
          </g>
        </g>
      </g>
    </g>
    <g id="Group_771" data-name="Group 771" transform="translate(1032.556 553.241)">
      <g id="Group_770" data-name="Group 770">
        <g id="Group_769" data-name="Group 769">
          <g id="Group_768" data-name="Group 768">
            <path id="Path_168" data-name="Path 168" d="M1044.056,564.121a.282.282,0,0,1-.118-.026l-11.213-5.146a.3.3,0,0,1,0-.536l11.213-5.147a.287.287,0,0,1,.236,0l11.213,5.147a.3.3,0,0,1,0,.536l-11.213,5.146A.283.283,0,0,1,1044.056,564.121Zm-10.511-5.44,10.511,4.824,10.51-4.824-10.51-4.824Z" transform="translate(-1032.556 -553.241)" fill="#fff"/>
          </g>
        </g>
      </g>
    </g>
    <g id="Group_775" data-name="Group 775" transform="translate(1033.504 558.874)">
      <g id="Group_774" data-name="Group 774">
        <g id="Group_773" data-name="Group 773">
          <g id="Group_772" data-name="Group 772">
            <path id="Path_169" data-name="Path 169" d="M1034.546,567.893a.273.273,0,0,1-.273-.273v-4.646a.273.273,0,1,1,.547,0v4.646A.274.274,0,0,1,1034.546,567.893Z" transform="translate(-1034.273 -562.7)" fill="#fff"/>
          </g>
        </g>
      </g>
    </g>
    <g id="Group_779" data-name="Group 779" transform="translate(1032.583 563.711)">
      <g id="Group_778" data-name="Group 778" transform="translate(0 0)">
        <g id="Group_777" data-name="Group 777">
          <g id="Group_776" data-name="Group 776">
            <path id="Path_170" data-name="Path 170" d="M1033.8,573.5a1.2,1.2,0,1,1,1.195-1.2A1.2,1.2,0,0,1,1033.8,573.5Zm0-1.844a.648.648,0,1,0,.648.648A.649.649,0,0,0,1033.8,571.66Z" transform="translate(-1032.604 -571.113)" fill="#fff"/>
          </g>
        </g>
      </g>
    </g>
    <g id="Group_783" data-name="Group 783" transform="translate(1032.582 565.713)">
      <g id="Group_782" data-name="Group 782">
        <g id="Group_781" data-name="Group 781">
          <g id="Group_780" data-name="Group 780">
            <path id="Path_171" data-name="Path 171" d="M1034.72,577.623h-1.843a.273.273,0,0,1-.268-.326l.511-2.626a.273.273,0,1,1,.537.1l-.448,2.3h1.179l-.448-2.3a.273.273,0,1,1,.537-.1l.511,2.626a.273.273,0,0,1-.268.326Z" transform="translate(-1032.604 -574.45)" fill="#fff"/>
          </g>
        </g>
      </g>
    </g>
  </g>
</svg>
