<svg xmlns="http://www.w3.org/2000/svg" width="214.794" height="33.295" viewBox="0 0 214.794 33.295">
  <g id="Group_162" data-name="Group 162" transform="translate(-1063 -1017)">
    <g id="Artboard_1_copy_10" data-name="Artboard 1 copy 10" transform="translate(1063 1017)">
      <path id="Path_26" data-name="Path 26" d="M177.777,65a7.647,7.647,0,0,1-3.91-.993,7.251,7.251,0,0,1-2.688-2.7,7.65,7.65,0,0,1-.972-3.86,7.928,7.928,0,0,1,.958-3.927,6.98,6.98,0,0,1,2.636-2.688,7.528,7.528,0,0,1,3.839-.969,6.833,6.833,0,0,1,5.38,2.457.972.972,0,0,1,.274.9,1.4,1.4,0,0,1-.6.818,1.053,1.053,0,0,1-.849.179,1.66,1.66,0,0,1-.853-.477,4.411,4.411,0,0,0-3.348-1.4,4.724,4.724,0,0,0-2.457.639,4.429,4.429,0,0,0-1.674,1.79,5.693,5.693,0,0,0-.6,2.7,5.418,5.418,0,0,0,.618,2.622,4.682,4.682,0,0,0,1.713,1.814,4.815,4.815,0,0,0,2.541.649,5.559,5.559,0,0,0,1.688-.232,3.976,3.976,0,0,0,1.33-.726,1.667,1.667,0,0,1,.919-.393,1.084,1.084,0,0,1,.825.26,1.3,1.3,0,0,1,.523.86,1.007,1.007,0,0,1-.33.856A6.991,6.991,0,0,1,177.777,65Z" transform="translate(-126.644 -37.651)" fill="#1b7f9d"/>
      <path id="Path_27" data-name="Path 27" d="M233.459,45.1v6.714a1.365,1.365,0,0,1-.4,1,1.4,1.4,0,0,1-1,.393,1.372,1.372,0,0,1-1-.393,1.351,1.351,0,0,1-.4-1V45.1a5.033,5.033,0,0,0-.576-2.541,3.625,3.625,0,0,0-1.551-1.456,5.008,5.008,0,0,0-2.236-.477,4.654,4.654,0,0,0-2.085.46,3.906,3.906,0,0,0-1.485,1.246,3.015,3.015,0,0,0-.547,1.783v7.7a1.4,1.4,0,1,1-2.8,0V33.256a1.33,1.33,0,0,1,.4-1.025,1.4,1.4,0,0,1,2.4,1.011v6.71a6.082,6.082,0,0,1,1.4-1.032,6.738,6.738,0,0,1,3.267-.793,6.991,6.991,0,0,1,3.387.811,5.763,5.763,0,0,1,2.344,2.341A7.77,7.77,0,0,1,233.459,45.1Z" transform="translate(-158.563 -25.943)" fill="#1b7f9d"/>
      <path id="Path_28" data-name="Path 28" d="M284.7,53.547a7.37,7.37,0,0,0-6.545-3.71,7.545,7.545,0,0,0-3.86.993,7.415,7.415,0,0,0-2.716,2.716,7.57,7.57,0,0,0-1,3.86,8.029,8.029,0,0,0,.919,3.86,7.079,7.079,0,0,0,2.509,2.7,6.822,6.822,0,0,0,8.89-1.5v1.018a1.355,1.355,0,0,0,.4,1,1.47,1.47,0,0,0,2,0,1.355,1.355,0,0,0,.4-1V57.421a7.57,7.57,0,0,0-1-3.874Zm-2.323,6.482a4.817,4.817,0,0,1-8.461,0,5.243,5.243,0,0,1-.646-2.608,5.31,5.31,0,0,1,.646-2.632,4.829,4.829,0,0,1,1.755-1.828,4.776,4.776,0,0,1,6.707,1.846,5.38,5.38,0,0,1,.635,2.632A5.314,5.314,0,0,1,282.377,60.029Z" transform="translate(-191.79 -37.638)" fill="#1b7f9d"/>
      <path id="Path_29" data-name="Path 29" d="M339.6,56.772v6.714a1.355,1.355,0,0,1-1.4,1.4,1.372,1.372,0,0,1-1-.393,1.355,1.355,0,0,1-.4-1V56.772a4.962,4.962,0,0,0-.586-2.541,3.586,3.586,0,0,0-1.551-1.456,4.987,4.987,0,0,0-2.236-.477,4.675,4.675,0,0,0-2.085.46A3.92,3.92,0,0,0,328.856,54a2.994,2.994,0,0,0-.551,1.783v7.7a1.4,1.4,0,1,1-2.8,0V51.314a1.355,1.355,0,0,1,.4-1.014,1.527,1.527,0,0,1,2.021,0,1.4,1.4,0,0,1,.379,1.014v.309a6.253,6.253,0,0,1,1.4-1.032,6.721,6.721,0,0,1,3.26-.793,7.019,7.019,0,0,1,3.394.811,5.8,5.8,0,0,1,2.358,2.358A7.77,7.77,0,0,1,339.6,56.772Z" transform="translate(-227.442 -37.613)" fill="#1b7f9d"/>
      <path id="Path_30" data-name="Path 30" d="M392.982,56.772v6.714a1.365,1.365,0,0,1-.4,1,1.4,1.4,0,0,1-1.007.393,1.372,1.372,0,0,1-1-.393,1.351,1.351,0,0,1-.4-1V56.772a5,5,0,0,0-.579-2.541,3.6,3.6,0,0,0-1.527-1.456,5.029,5.029,0,0,0-2.236-.477,4.654,4.654,0,0,0-2.085.46A3.906,3.906,0,0,0,382.264,54a3.015,3.015,0,0,0-.547,1.783v7.7a1.4,1.4,0,1,1-2.8,0V51.314a1.344,1.344,0,0,1,.379-1.014,1.4,1.4,0,0,1,2.4,1.014v.309a5.906,5.906,0,0,1,1.4-1.032,6.738,6.738,0,0,1,3.267-.793,6.991,6.991,0,0,1,3.387.811,5.78,5.78,0,0,1,2.358,2.358,7.77,7.77,0,0,1,.87,3.8Z" transform="translate(-262.106 -37.613)" fill="#1b7f9d"/>
      <path id="Path_31" data-name="Path 31" d="M443.88,58.033a1.137,1.137,0,0,0,.351-.86,8.566,8.566,0,0,0-.807-3.8,6.177,6.177,0,0,0-2.348-2.594,6.9,6.9,0,0,0-3.678-.941,7.542,7.542,0,0,0-3.843.969,6.9,6.9,0,0,0-2.618,2.674A7.988,7.988,0,0,0,430,57.419a7.591,7.591,0,0,0,1,3.917,7.019,7.019,0,0,0,2.769,2.674,8.423,8.423,0,0,0,6.7.505,7.5,7.5,0,0,0,2.316-1.2.962.962,0,0,0,.439-.846,1.277,1.277,0,0,0-.491-.9,1.218,1.218,0,0,0-.839-.288A1.544,1.544,0,0,0,441,61.6a5.409,5.409,0,0,1-1.442.726,5.264,5.264,0,0,1-1.755.309,5.556,5.556,0,0,1-2.769-.681,5.033,5.033,0,0,1-1.9-1.853,4.949,4.949,0,0,1-.611-1.723h10.455A1.249,1.249,0,0,0,443.88,58.033Zm-11.308-1.825a5.665,5.665,0,0,1,.47-1.456,4.4,4.4,0,0,1,1.688-1.871A4.99,4.99,0,0,1,437.4,52.2a4,4,0,0,1,3.822,2.313,5.469,5.469,0,0,1,.481,1.7Z" transform="translate(-295.26 -37.636)" fill="#1b7f9d"/>
      <path id="Path_32" data-name="Path 32" d="M483.291,53.263a3.65,3.65,0,0,1-2.141-.653,4.355,4.355,0,0,1-1.453-1.79,6.158,6.158,0,0,1-.519-2.6v-14.9a1.326,1.326,0,0,1,.383-.983,1.467,1.467,0,0,1,1.976,0,1.327,1.327,0,0,1,.383.983v14.9a3.243,3.243,0,0,0,.386,1.663,1.137,1.137,0,0,0,.986.656h.7a1.137,1.137,0,0,1,.877.383,1.4,1.4,0,0,1,.351.983,1.162,1.162,0,0,1-.523.979,2.211,2.211,0,0,1-1.344.383Z" transform="translate(-327.181 -26.029)" fill="#1b7f9d"/>
      <path id="Path_33" data-name="Path 33" d="M505.641,36.571a1.788,1.788,0,0,1-1.274-3.071,1.8,1.8,0,1,1,1.274,3.071Zm0,17.354a1.351,1.351,0,0,1-1.4-1.4V40.389a1.323,1.323,0,0,1,.4-1.007,1.523,1.523,0,0,1,2.018,0,1.351,1.351,0,0,1,.393,1.007V52.535a1.376,1.376,0,0,1-.383,1A1.355,1.355,0,0,1,505.641,53.925Z" transform="translate(-343.179 -26.691)" fill="#1b7f9d"/>
      <path id="Path_34" data-name="Path 34" d="M531.426,64.977a10.374,10.374,0,0,1-3.552-.586,6.794,6.794,0,0,1-2.541-1.488,1.179,1.179,0,0,1-.351-1,1.32,1.32,0,0,1,.533-.916,1.436,1.436,0,0,1,1.084-.351,1.481,1.481,0,0,1,.93.477,4.328,4.328,0,0,0,1.5.969,5.636,5.636,0,0,0,2.292.435A4.671,4.671,0,0,0,533.756,62a1.607,1.607,0,0,0,.863-1.337,1.671,1.671,0,0,0-.783-1.4,7.485,7.485,0,0,0-2.948-.979,8.585,8.585,0,0,1-4.022-1.639,3.415,3.415,0,0,1-1.246-2.674,3.324,3.324,0,0,1,.811-2.327,5.015,5.015,0,0,1,2.106-1.365,8.073,8.073,0,0,1,2.688-.449,8.422,8.422,0,0,1,3.232.576,5.454,5.454,0,0,1,2.208,1.59,1.264,1.264,0,0,1,.351.916,1.053,1.053,0,0,1-.453.8,1.344,1.344,0,0,1-1.053.19A1.93,1.93,0,0,1,534.5,53.4a3.745,3.745,0,0,0-1.481-.9,6.223,6.223,0,0,0-1.839-.246,4.661,4.661,0,0,0-2.046.407,1.3,1.3,0,0,0-.835,1.2,1.583,1.583,0,0,0,.26.884,2.19,2.19,0,0,0,1.028.7,13.564,13.564,0,0,0,2.25.611,12.361,12.361,0,0,1,3.253,1.053,4.348,4.348,0,0,1,1.716,1.46,3.576,3.576,0,0,1,.519,1.923,4.019,4.019,0,0,1-.67,2.267,4.65,4.65,0,0,1-1.976,1.607A7.784,7.784,0,0,1,531.426,64.977Z" transform="translate(-356.906 -37.631)" fill="#1b7f9d"/>
      <path id="Path_35" data-name="Path 35" d="M581.934,58.033a1.123,1.123,0,0,0,.351-.86,8.521,8.521,0,0,0-.811-3.8,6.12,6.12,0,0,0-2.344-2.594,6.893,6.893,0,0,0-3.674-.941,7.532,7.532,0,0,0-3.843.969,6.907,6.907,0,0,0-2.622,2.674,8.023,8.023,0,0,0-.944,3.941,7.588,7.588,0,0,0,1,3.917,7.019,7.019,0,0,0,2.772,2.674,8.423,8.423,0,0,0,6.693.505,7.521,7.521,0,0,0,2.32-1.2.962.962,0,0,0,.439-.846,1.3,1.3,0,0,0-.495-.9,1.214,1.214,0,0,0-.835-.288,1.555,1.555,0,0,0-.895.312,5.432,5.432,0,0,1-1.439.726,5.265,5.265,0,0,1-1.755.309,5.559,5.559,0,0,1-2.773-.681,5.022,5.022,0,0,1-1.892-1.853,4.879,4.879,0,0,1-.611-1.723h10.434a1.242,1.242,0,0,0,.923-.34Zm-11.3-1.825a5.4,5.4,0,0,1,.467-1.456,4.442,4.442,0,0,1,1.688-1.871,5,5,0,0,1,2.678-.681,3.99,3.99,0,0,1,3.8,2.313,5.264,5.264,0,0,1,.5,1.7Z" transform="translate(-384.862 -37.636)" fill="#1b7f9d"/>
      <path id="Path_36" data-name="Path 36" d="M629.745,32.3a1.534,1.534,0,0,0-2.018,0,1.344,1.344,0,0,0-.4,1.011v7.37a6.749,6.749,0,0,0-5.3-2.485,6.636,6.636,0,0,0-3.594.993,7.159,7.159,0,0,0-2.509,2.7,8.036,8.036,0,0,0-.919,3.86,7.548,7.548,0,0,0,1,3.86,7.345,7.345,0,0,0,2.716,2.72,7.542,7.542,0,0,0,3.86,1,7.394,7.394,0,0,0,6.545-3.717,7.548,7.548,0,0,0,1-3.86V33.324a1.362,1.362,0,0,0-.39-1.025Zm-2.937,16.074a4.847,4.847,0,0,1-6.707,1.842,4.776,4.776,0,0,1-1.755-1.842,5.365,5.365,0,0,1-.642-2.618,5.264,5.264,0,0,1,.642-2.622,4.849,4.849,0,0,1,1.755-1.814,4.984,4.984,0,0,1,4.98,0,4.77,4.77,0,0,1,1.727,1.814,5.338,5.338,0,0,1,.632,2.622,5.44,5.44,0,0,1-.618,2.632Z" transform="translate(-415.342 -26.011)" fill="#1b7f9d"/>
      <path id="Path_37" data-name="Path 37" d="M100.229,15.08A11.4,11.4,0,0,0,89.209,23.5h0a11.451,11.451,0,0,0-.379,2.923V29.3a11.262,11.262,0,0,0,3.218,7.9l.123.123a10.912,10.912,0,0,0,.9.807,11.255,11.255,0,0,0,3.19,1.8h0A11.42,11.42,0,0,0,111.642,29.29V26.423A11.374,11.374,0,0,0,100.229,15.08Zm7.984,13.785a7.984,7.984,0,1,1-15.968,0v-.642c0-2.948-2.874-4.629-3.032-4.724H93a7.991,7.991,0,0,1,15.217,3.355Z" transform="translate(-73.827 -15.08)" fill="#1b7f9d"/>
      <path id="Path_38" data-name="Path 38" d="M68.513,54.165h-3.79A7.991,7.991,0,0,1,49.505,50.81V48.8A7.991,7.991,0,0,1,61.087,41.71V40.657a11.454,11.454,0,0,1,.379-2.925A11.409,11.409,0,0,0,46.08,48.368v2.871a11.413,11.413,0,0,0,22.433,2.93h0Z" transform="translate(-46.08 -29.318)" fill="#1b7f9d"/>
    </g>
  </g>
</svg>
