<svg xmlns="http://www.w3.org/2000/svg" width="20" height="23.611" viewBox="0 0 20 23.611">
  <g id="Promotions_active" transform="translate(-533.603 -618.997)">
    <g id="Group_749" data-name="Group 749" transform="translate(533.603 633.482)">
      <g id="Group_740" data-name="Group 740" transform="translate(0 0)">
        <g id="Group_739" data-name="Group 739">
          <g id="Group_738" data-name="Group 738">
            <g id="Group_737" data-name="Group 737">
              <path id="Path_160" data-name="Path 160" d="M536.979,645.98H534a.4.4,0,0,1-.4-.4v-8.322a.4.4,0,0,1,.4-.4h2.974a.4.4,0,0,1,.4.4v8.322A.4.4,0,0,1,536.979,645.98Zm-2.573-.8h2.171v-7.518h-2.171Z" transform="translate(-533.603 -636.854)" fill="#424446"/>
            </g>
          </g>
        </g>
      </g>
      <g id="Group_744" data-name="Group 744" transform="translate(2.974 0.69)">
        <g id="Group_743" data-name="Group 743">
          <g id="Group_742" data-name="Group 742">
            <g id="Group_741" data-name="Group 741">
              <path id="Path_161" data-name="Path 161" d="M542.521,641.374a.4.4,0,0,1-.118-.785l2.131-.661a.4.4,0,0,1,.175-.015l3.986.561a.387.387,0,0,0,.429-.3l.034-.15a.386.386,0,0,0-.286-.46l-4.449-1.05-6.678,1.234a.4.4,0,0,1-.146-.79l6.76-1.249a.391.391,0,0,1,.166,0l4.531,1.07a1.191,1.191,0,0,1,.886,1.42l-.034.15a1.2,1.2,0,0,1-1.325.913l-3.9-.548-2.046.635A.4.4,0,0,1,542.521,641.374Z" transform="translate(-537.27 -637.705)" fill="#424446"/>
            </g>
          </g>
        </g>
      </g>
      <g id="Group_748" data-name="Group 748" transform="translate(2.974 3.455)">
        <g id="Group_747" data-name="Group 747">
          <g id="Group_746" data-name="Group 746">
            <g id="Group_745" data-name="Group 745">
              <path id="Path_162" data-name="Path 162" d="M542.262,645.153a39.9,39.9,0,0,1-4.636-.272.4.4,0,1,1,.094-.8A38.628,38.628,0,0,0,552.393,643l.811-.22a.385.385,0,0,0,.081-.711.388.388,0,0,0-.183-.046l-4.436-.1a.4.4,0,1,1,.018-.8l4.428.1h0a1.188,1.188,0,0,1,.3,2.335l-.812.22A39.43,39.43,0,0,1,542.262,645.153Z" transform="translate(-537.27 -641.114)" fill="#424446"/>
            </g>
          </g>
        </g>
      </g>
    </g>
    <g id="Group_762" data-name="Group 762" transform="translate(538.252 618.997)">
      <g id="Group_753" data-name="Group 753" transform="translate(0 0.664)">
        <g id="Group_752" data-name="Group 752">
          <g id="Group_751" data-name="Group 751">
            <g id="Group_750" data-name="Group 750">
              <path id="Path_163" data-name="Path 163" d="M541.421,624.058a2.122,2.122,0,1,1,2.122-2.122A2.124,2.124,0,0,1,541.421,624.058Zm0-3.439a1.318,1.318,0,1,0,1.318,1.317A1.319,1.319,0,0,0,541.421,620.619Z" transform="translate(-539.3 -619.815)" fill="#424446"/>
            </g>
          </g>
        </g>
      </g>
      <g id="Group_757" data-name="Group 757" transform="translate(6.459 7.123)">
        <g id="Group_756" data-name="Group 756">
          <g id="Group_755" data-name="Group 755">
            <g id="Group_754" data-name="Group 754">
              <path id="Path_164" data-name="Path 164" d="M549.384,632.021a2.122,2.122,0,1,1,2.122-2.121A2.124,2.124,0,0,1,549.384,632.021Zm0-3.439A1.318,1.318,0,1,0,550.7,629.9,1.32,1.32,0,0,0,549.384,628.582Z" transform="translate(-547.263 -627.778)" fill="#424446"/>
            </g>
          </g>
        </g>
      </g>
      <g id="Group_761" data-name="Group 761" transform="translate(1.097)">
        <g id="Group_760" data-name="Group 760">
          <g id="Group_759" data-name="Group 759">
            <g id="Group_758" data-name="Group 758">
              <path id="Path_165" data-name="Path 165" d="M541.055,630.938a.4.4,0,0,1-.226-.07.4.4,0,0,1-.105-.558l7.615-11.138a.4.4,0,0,1,.664.453l-7.614,11.137A.4.4,0,0,1,541.055,630.938Z" transform="translate(-540.653 -618.997)" fill="#424446"/>
            </g>
          </g>
        </g>
      </g>
    </g>
  </g>
</svg>
