<svg xmlns="http://www.w3.org/2000/svg" width="15.602" height="15.807" viewBox="0 0 15.602 15.807">
  <g id="saveFilter-icon" transform="translate(-1239.277 -1425.951)">
    <g id="Group_542" data-name="Group 542" transform="translate(1241.125 1425.951)">
      <g id="Group_536" data-name="Group 536" transform="translate(0 8.417)">
        <path id="Path_82" data-name="Path 82" d="M1248.893,1474.342a.616.616,0,0,1-.616-.616v-6.159a.616.616,0,1,1,1.232,0v6.159A.616.616,0,0,1,1248.893,1474.342Z" transform="translate(-1248.277 -1466.951)" fill="#1b7f9d"/>
      </g>
      <g id="Group_537" data-name="Group 537">
        <path id="Path_83" data-name="Path 83" d="M1248.893,1431.494a.616.616,0,0,1-.616-.616v-4.311a.616.616,0,0,1,1.232,0v4.311A.616.616,0,0,1,1248.893,1431.494Z" transform="translate(-1248.277 -1425.951)" fill="#1b7f9d"/>
      </g>
      <g id="Group_538" data-name="Group 538" transform="translate(5.338 12.523)">
        <path id="Path_84" data-name="Path 84" d="M1274.893,1490.236a.616.616,0,0,1-.616-.616v-2.053a.616.616,0,1,1,1.232,0v2.053A.616.616,0,0,1,1274.893,1490.236Z" transform="translate(-1274.277 -1486.951)" fill="#1b7f9d"/>
      </g>
      <g id="Group_539" data-name="Group 539" transform="translate(5.338)">
        <path id="Path_85" data-name="Path 85" d="M1274.893,1435.805a.616.616,0,0,1-.616-.616v-8.622a.616.616,0,0,1,1.232,0v8.622A.616.616,0,0,1,1274.893,1435.805Z" transform="translate(-1274.277 -1425.951)" fill="#1b7f9d"/>
      </g>
      <g id="Group_540" data-name="Group 540" transform="translate(10.675 5.748)">
        <path id="Path_86" data-name="Path 86" d="M1300.893,1464.01a.616.616,0,0,1-.616-.616v-8.828a.616.616,0,0,1,1.232,0v8.828A.616.616,0,0,1,1300.893,1464.01Z" transform="translate(-1300.277 -1453.951)" fill="#1b7f9d"/>
      </g>
      <g id="Group_541" data-name="Group 541" transform="translate(10.675)">
        <path id="Path_87" data-name="Path 87" d="M1300.893,1429.236a.616.616,0,0,1-.616-.616v-2.053a.616.616,0,0,1,1.232,0v2.053A.616.616,0,0,1,1300.893,1429.236Z" transform="translate(-1300.277 -1425.951)" fill="#1b7f9d"/>
      </g>
    </g>
    <g id="Group_543" data-name="Group 543" transform="translate(1249.952 1428.004)">
      <path id="Path_88" data-name="Path 88" d="M1293.74,1440.878a2.464,2.464,0,1,1,2.464-2.464A2.467,2.467,0,0,1,1293.74,1440.878Zm0-3.7a1.232,1.232,0,1,0,1.232,1.232A1.233,1.233,0,0,0,1293.74,1437.183Z" transform="translate(-1291.277 -1435.951)" fill="#1b7f9d"/>
    </g>
    <g id="Group_544" data-name="Group 544" transform="translate(1244.615 1434.573)">
      <path id="Path_89" data-name="Path 89" d="M1267.74,1472.878a2.463,2.463,0,1,1,2.464-2.464A2.466,2.466,0,0,1,1267.74,1472.878Zm0-3.7a1.232,1.232,0,1,0,1.232,1.232A1.233,1.233,0,0,0,1267.74,1469.183Z" transform="translate(-1265.277 -1467.951)" fill="#1b7f9d"/>
    </g>
    <g id="Group_545" data-name="Group 545" transform="translate(1239.277 1430.467)">
      <path id="Path_90" data-name="Path 90" d="M1241.74,1452.878a2.464,2.464,0,1,1,2.464-2.464A2.466,2.466,0,0,1,1241.74,1452.878Zm0-3.7a1.232,1.232,0,1,0,1.232,1.232A1.233,1.233,0,0,0,1241.74,1449.183Z" transform="translate(-1239.277 -1447.951)" fill="#1b7f9d"/>
    </g>
  </g>
</svg>
