<svg xmlns="http://www.w3.org/2000/svg" width="20.001" height="20" viewBox="0 0 20.001 20">
  <g id="Group_708" data-name="Group 708" transform="translate(-3618.597 -547.988)">
    <g id="Group_703" data-name="Group 703" transform="translate(3618.597 547.988)">
      <g id="Group_698" data-name="Group 698">
        <g id="Group_697" data-name="Group 697">
          <g id="Group_696" data-name="Group 696">
            <g id="Group_695" data-name="Group 695">
              <path id="Path_150" data-name="Path 150" d="M3626.415,563.625a7.818,7.818,0,1,1,7.819-7.818A7.827,7.827,0,0,1,3626.415,563.625Zm0-14.976a7.158,7.158,0,1,0,7.158,7.158A7.165,7.165,0,0,0,3626.415,548.649Z" transform="translate(-3618.597 -547.988)" fill="#838383"/>
            </g>
          </g>
        </g>
      </g>
      <g id="Group_702" data-name="Group 702" transform="translate(12.064 12.064)">
        <g id="Group_701" data-name="Group 701">
          <g id="Group_700" data-name="Group 700">
            <g id="Group_699" data-name="Group 699">
              <path id="Path_151" data-name="Path 151" d="M3643.153,574a1.455,1.455,0,0,1-1.031-.426h0l-5.352-5.352a.33.33,0,0,1,0-.467l1.594-1.594a.331.331,0,0,1,.468,0l5.352,5.352a1.456,1.456,0,0,1-1.031,2.487Zm-5.681-6.012,5.118,5.118h0a.8.8,0,0,0,1.127-1.127l-5.119-5.119Z" transform="translate(-3636.673 -566.064)" fill="#838383"/>
            </g>
          </g>
        </g>
      </g>
    </g>
    <g id="Group_707" data-name="Group 707" transform="translate(3621.288 550.678)">
      <g id="Group_706" data-name="Group 706">
        <g id="Group_705" data-name="Group 705">
          <g id="Group_704" data-name="Group 704">
            <path id="Path_152" data-name="Path 152" d="M3622.959,557.477a.331.331,0,0,1-.33-.33,5.133,5.133,0,0,1,5.127-5.128.331.331,0,0,1,0,.661,4.472,4.472,0,0,0-4.467,4.467A.331.331,0,0,1,3622.959,557.477Z" transform="translate(-3622.629 -552.019)" fill="#838383"/>
          </g>
        </g>
      </g>
    </g>
  </g>
</svg>
