<svg xmlns="http://www.w3.org/2000/svg" width="16.216" height="19.754" viewBox="0 0 16.216 19.754">
  <path id="seeting-home-icon" d="M245.144,55.519h-4.982a.658.658,0,0,1-.658-.658V48.628h-3.618V54.86a.658.658,0,0,1-.658.658h-4.982a.659.659,0,0,1-.658-.658V43.872a.659.659,0,0,1,.193-.465l7.45-7.449a.657.657,0,0,1,.931,0l7.45,7.449a.659.659,0,0,1,.193.465V54.86A.659.659,0,0,1,245.144,55.519ZM240.82,54.2h3.665V44.145l-6.791-6.791L230.9,44.145V54.2h3.665V47.97a.658.658,0,0,1,.658-.658h4.935a.658.658,0,0,1,.658.658Z" transform="translate(-229.586 -35.765)" fill="#424446"/>
</svg>
