<svg xmlns="http://www.w3.org/2000/svg" width="17.837" height="19.754" viewBox="0 0 17.837 19.754">
  <g id="seeting-logout-icon" transform="translate(-197 -995)">
    <path id="Path_40" data-name="Path 40" d="M302.959,57.206a8.922,8.922,0,0,1-4.706-16.5.787.787,0,1,1,.831,1.337,7.338,7.338,0,1,0,7.735-.01.787.787,0,0,1,.828-1.339,8.92,8.92,0,0,1-4.688,16.512Z" transform="translate(-97.041 957.548)" fill="#424446"/>
    <path id="Path_41" data-name="Path 41" d="M304.787,46.722a.787.787,0,0,1-.787-.787v-8.4a.787.787,0,0,1,1.575,0v8.4A.787.787,0,0,1,304.787,46.722Z" transform="translate(-98.869 958.25)" fill="#424446"/>
  </g>
</svg>
