<svg xmlns="http://www.w3.org/2000/svg" width="23.092" height="15.679" viewBox="0 0 23.092 15.679">
  <g id="Announcements_active" transform="translate(-202 -632)">
    <g id="Group_806" data-name="Group 806" transform="translate(202 632)">
      <g id="Group_788" data-name="Group 788" transform="translate(8.932 6.007)">
        <g id="Group_787" data-name="Group 787">
          <g id="Group_786" data-name="Group 786">
            <g id="Group_785" data-name="Group 785">
              <path id="Path_172" data-name="Path 172" d="M1054.949,638.848c-3.192,0-6.04-1.454-6.925-3.536a.3.3,0,0,1,.546-.232c.795,1.869,3.418,3.175,6.379,3.175a9.006,9.006,0,0,0,4-.885.3.3,0,0,1,.2-.022l2.015.509-.42-1.662a.3.3,0,0,1,.057-.259,3.154,3.154,0,0,0,.761-2.007c0-1.932-1.992-3.646-4.845-4.166a.3.3,0,0,1,.107-.583c3.139.573,5.331,2.527,5.331,4.75a3.745,3.745,0,0,1-.8,2.261l.506,2a.3.3,0,0,1-.359.36l-2.391-.6A9.641,9.641,0,0,1,1054.949,638.848Z" transform="translate(-1048 -629.176)" fill="#424446"/>
            </g>
          </g>
        </g>
      </g>
      <g id="Group_805" data-name="Group 805">
        <g id="Group_792" data-name="Group 792">
          <g id="Group_791" data-name="Group 791">
            <g id="Group_790" data-name="Group 790">
              <g id="Group_789" data-name="Group 789">
                <path id="Path_173" data-name="Path 173" d="M1042.038,631.318a11.993,11.993,0,0,1-5.215-1.131l-3.025.765a.3.3,0,0,1-.359-.36l.643-2.546a4.624,4.624,0,0,1-1.01-2.818c0-3.359,4.022-6.091,8.966-6.091s8.966,2.732,8.966,6.091S1046.982,631.318,1042.038,631.318Zm-5.182-1.741a.291.291,0,0,1,.132.031,11.369,11.369,0,0,0,5.05,1.117c4.617,0,8.374-2.466,8.374-5.5s-3.756-5.5-8.374-5.5-8.374,2.466-8.374,5.5a4.08,4.08,0,0,0,.971,2.563.3.3,0,0,1,.057.259l-.557,2.206,2.649-.669A.3.3,0,0,1,1036.856,629.577Z" transform="translate(-1033.072 -619.137)" fill="#424446"/>
              </g>
            </g>
          </g>
        </g>
        <g id="Group_796" data-name="Group 796" transform="translate(7.599 4.724)">
          <g id="Group_795" data-name="Group 795">
            <g id="Group_794" data-name="Group 794">
              <g id="Group_793" data-name="Group 793">
                <path id="Path_174" data-name="Path 174" d="M1047.14,629.765a1.367,1.367,0,1,1,1.367-1.367A1.368,1.368,0,0,1,1047.14,629.765Zm0-2.141a.774.774,0,1,0,.774.774A.775.775,0,0,0,1047.14,627.624Z" transform="translate(-1045.773 -627.032)" fill="#424446"/>
              </g>
            </g>
          </g>
        </g>
        <g id="Group_800" data-name="Group 800" transform="translate(3.539 4.724)">
          <g id="Group_799" data-name="Group 799">
            <g id="Group_798" data-name="Group 798">
              <g id="Group_797" data-name="Group 797">
                <path id="Path_175" data-name="Path 175" d="M1040.354,629.765a1.367,1.367,0,1,1,1.367-1.367A1.368,1.368,0,0,1,1040.354,629.765Zm0-2.141a.774.774,0,1,0,.774.774A.775.775,0,0,0,1040.354,627.624Z" transform="translate(-1038.987 -627.032)" fill="#424446"/>
              </g>
            </g>
          </g>
        </g>
        <g id="Group_804" data-name="Group 804" transform="translate(11.66 4.724)">
          <g id="Group_803" data-name="Group 803">
            <g id="Group_802" data-name="Group 802">
              <g id="Group_801" data-name="Group 801">
                <path id="Path_176" data-name="Path 176" d="M1053.926,629.765a1.367,1.367,0,1,1,1.367-1.367A1.368,1.368,0,0,1,1053.926,629.765Zm0-2.141a.774.774,0,1,0,.774.774A.775.775,0,0,0,1053.926,627.624Z" transform="translate(-1052.56 -627.032)" fill="#424446"/>
              </g>
            </g>
          </g>
        </g>
      </g>
    </g>
  </g>
</svg>
