<svg xmlns="http://www.w3.org/2000/svg" width="23" height="22.25" viewBox="0 0 23 22.25">
  <g id="Events-icon" transform="translate(-2488.75 -993.34)">
    <path id="Path_154" data-name="Path 154" d="M2493.861,1015.59a1.223,1.223,0,0,1-1.189-1.48l1.487-6.837-4.969-4.132a1.218,1.218,0,0,1,.641-2.146l6.294-.716,3.028-6.252a1.217,1.217,0,0,1,2.192,0l3.028,6.252,6.293.716a1.218,1.218,0,0,1,.641,2.147l-4.969,4.131,1.487,6.837a1.217,1.217,0,0,1-1.817,1.3l-5.761-3.457-5.76,3.457h0A1.214,1.214,0,0,1,2493.861,1015.59Zm6.389-21.528a.485.485,0,0,0-.447.28l-3.115,6.431a.361.361,0,0,1-.283.2l-6.491.739a.5.5,0,0,0-.261.875l5.137,4.272a.362.362,0,0,1,.122.354l-1.534,7.051a.5.5,0,0,0,.741.531h0l5.946-3.569a.362.362,0,0,1,.372,0l5.947,3.569a.5.5,0,0,0,.74-.531l-1.533-7.051a.361.361,0,0,1,.122-.354l5.137-4.272a.5.5,0,0,0-.261-.875l-6.491-.739a.361.361,0,0,1-.284-.2l-3.115-6.431A.486.486,0,0,0,2500.25,994.062Z" fill="#fff"/>
  </g>
</svg>
